<svg viewBox="0 0 16 16" width="16" height="16" fill="none" xmlns="http://www.w3.org/2000/svg">
    <path fill-rule="evenodd" fill="#03c75a" d="M6.14 12.519A1.74 1.74 0 116.139 16a1.74 1.74 0 01.001-3.481zm4.8 0A1.74 1.74 0 1110.939 16a1.74 1.74 0 01.001-3.481zm-4.8 1.052a.688.688 0 100 1.376.688.688 0 000-1.376zm4.8 0a.688.688 0 100 1.376.688.688 0 000-1.376zM2.506 2.4c.24 0 .449.173.5.415l.376 1.784h11.306c.342 0 .588.34.49.677l-1.829 6.3a.512.512 0 01-.49.376h-8.56a.515.515 0 01-.501-.414L2.093 3.452H.512A.519.519 0 010 2.926c0-.29.23-.526.512-.526zM14 5.651H3.604L4.711 10.9h7.766l1.524-5.249z"></path>
</svg>