<svg viewBox="0 0 32 32" width="38" height="38">
    <path fill="currentColor" d="M15,8H17c0.6,0,1-0.4,1-1s-0.4-1-1-1H15c-0.6,0-1,0.4-1,1S14.4,8,15,8z" />
    <path fill="currentColor"
    d="M29.9,20.5C29.7,20.2,29.3,20,29,20h-1.1c-0.5-4.4-4.1-8.8-8.7-10.2c-2.1-0.7-4.4-0.7-6.5,0C8.2,11.2,4.5,15.6,4.1,20H3   c-0.3,0-0.7,0.2-0.9,0.5s-0.2,0.7,0,1C3.5,24.3,6.3,26,9.5,26h13.1c3.1,0,6-1.7,7.4-4.6C30,21.1,30,20.8,29.9,20.5z M13.3,11.7   c1.7-0.5,3.6-0.5,5.3,0c3.7,1.1,6.8,4.7,7.3,8.3H6.1C6.6,16.4,9.6,12.9,13.3,11.7z M22.5,24H9.5c-1.8,0-3.4-0.7-4.6-2h22.2   C25.9,23.3,24.3,24,22.5,24z" />
</svg>