<svg width="77" height="13" viewBox="0 0 77 13" fill="none" xmlns="http://www.w3.org/2000/svg">
<path d="M8.5 0.5L10.0344 5.08359H15L10.9828 7.91641L12.5172 12.5L8.5 9.66718L4.48278 12.5L6.01722 7.91641L2 5.08359H6.96556L8.5 0.5Z" fill="#E95A4C"/>
<path d="M23.5 0.5L25.0344 5.08359H30L25.9828 7.91641L27.5172 12.5L23.5 9.66718L19.4828 12.5L21.0172 7.91641L17 5.08359H21.9656L23.5 0.5Z" fill="#E95A4C"/>
<path d="M38.5 0.5L40.0344 5.08359H45L40.9828 7.91641L42.5172 12.5L38.5 9.66718L34.4828 12.5L36.0172 7.91641L32 5.08359H36.9656L38.5 0.5Z" fill="#E95A4C"/>
<path d="M53.5 0.5L55.0344 5.08359H60L55.9828 7.91641L57.5172 12.5L53.5 9.66718L49.4828 12.5L51.0172 7.91641L47 5.08359H51.9656L53.5 0.5Z" fill="#E95A4C"/>
<path d="M68.5 0.5L70.0344 5.08359H75L70.9828 7.91641L72.5172 12.5L68.5 9.66718L64.4828 12.5L66.0172 7.91641L62 5.08359H66.9656L68.5 0.5Z" fill="#E95A4C"/>
</svg>
