<svg width="14" height="14" viewBox="0 0 14 14" fill="none" xmlns="http://www.w3.org/2000/svg">
<rect y="13" width="13" height="1" fill="#B2B2B2"/>
<path d="M1 9.5C1 8.67157 1.67157 8 2.5 8V8C3.32843 8 4 8.67157 4 9.5V13H1V9.5Z" fill="#61D176"/>
<path d="M5 8.5C5 7.67157 5.67157 7 6.5 7V7C7.32843 7 8 7.67157 8 8.5V13H5V8.5Z" fill="#65CE9D"/>
<path d="M9 6.5C9 5.67157 9.67157 5 10.5 5V5C11.3284 5 12 5.67157 12 6.5V13H9V6.5Z" fill="#6DCBC0"/>
<path d="M1.56742 6.37809C3.7535 6.06482 9.05742 4.49658 10.8989 1" stroke="#B2B2B2"/>
<path d="M8 1.25705L10.989 1L11.2032 3.49081L11.246 3.98897" stroke="#B2B2B2"/>
</svg>
