<svg width="16" height="16" viewBox="0 0 16 16" fill="none" xmlns="http://www.w3.org/2000/svg">
<g clip-path="url(#clip0)">
<path fill-rule="evenodd" clip-rule="evenodd" d="M6.14 12.519C6.36856 12.5191 6.59488 12.5641 6.80602 12.6517C7.01716 12.7392 7.209 12.8675 7.37057 13.0291C7.53215 13.1908 7.66029 13.3827 7.7477 13.5939C7.83511 13.8051 7.88006 14.0314 7.88 14.26C7.87993 14.4886 7.83485 14.7149 7.74732 14.926C7.65979 15.1372 7.53153 15.329 7.36986 15.4906C7.2082 15.6521 7.01629 15.7803 6.8051 15.8677C6.5939 15.9551 6.36756 16.0001 6.139 16C5.67739 15.9999 5.23474 15.8164 4.90843 15.4899C4.58211 15.1634 4.39887 14.7206 4.399 14.259C4.39913 13.7974 4.58263 13.3547 4.90913 13.0284C5.23563 12.7021 5.67839 12.5189 6.14 12.519ZM10.94 12.519C11.1686 12.5191 11.3949 12.5641 11.606 12.6517C11.8172 12.7392 12.009 12.8675 12.1706 13.0291C12.3321 13.1908 12.4603 13.3827 12.5477 13.5939C12.6351 13.8051 12.6801 14.0314 12.68 14.26C12.6799 14.4886 12.6348 14.7149 12.5473 14.926C12.4598 15.1372 12.3315 15.329 12.1699 15.4906C12.0082 15.6521 11.8163 15.7803 11.6051 15.8677C11.3939 15.9551 11.1676 16.0001 10.939 16C10.4774 15.9999 10.0347 15.8164 9.70843 15.4899C9.38211 15.1634 9.19887 14.7206 9.199 14.259C9.19913 13.7974 9.38263 13.3547 9.70913 13.0284C10.0356 12.7021 10.4784 12.5189 10.94 12.519ZM6.14 13.571C5.95753 13.571 5.78253 13.6435 5.65351 13.7725C5.52448 13.9015 5.452 14.0765 5.452 14.259C5.452 14.4415 5.52448 14.6165 5.65351 14.7455C5.78253 14.8745 5.95753 14.947 6.14 14.947C6.32247 14.947 6.49746 14.8745 6.62649 14.7455C6.75551 14.6165 6.828 14.4415 6.828 14.259C6.828 14.0765 6.75551 13.9015 6.62649 13.7725C6.49746 13.6435 6.32247 13.571 6.14 13.571ZM10.94 13.571C10.7575 13.571 10.5825 13.6435 10.4535 13.7725C10.3245 13.9015 10.252 14.0765 10.252 14.259C10.252 14.4415 10.3245 14.6165 10.4535 14.7455C10.5825 14.8745 10.7575 14.947 10.94 14.947C11.1225 14.947 11.2975 14.8745 11.4265 14.7455C11.5555 14.6165 11.628 14.4415 11.628 14.259C11.628 14.0765 11.5555 13.9015 11.4265 13.7725C11.2975 13.6435 11.1225 13.571 10.94 13.571ZM2.506 2.4C2.746 2.4 2.955 2.573 3.006 2.815L3.382 4.599H14.688C15.03 4.599 15.276 4.939 15.178 5.276L13.349 11.576C13.3194 11.6835 13.2555 11.7783 13.1671 11.8462C13.0786 11.9141 12.9705 11.9512 12.859 11.952H4.299C4.18063 11.9511 4.06619 11.9094 3.97495 11.834C3.8837 11.7586 3.82121 11.6541 3.798 11.538L2.093 3.452H0.511998C0.44384 3.45109 0.37653 3.43676 0.313911 3.40983C0.251292 3.3829 0.194591 3.3439 0.147046 3.29505C0.0995013 3.24621 0.0620439 3.18848 0.0368133 3.12515C0.0115826 3.06183 -0.000927225 2.99416 -1.74899e-06 2.926C-1.74899e-06 2.636 0.229998 2.4 0.511998 2.4H2.506Z" fill="#04c75b"/>
</g>
<defs>
<clipPath id="clip0">
<rect width="16" height="16" fill="#04c75b"/>
</clipPath>
</defs>
</svg>
